<svg viewBox="0 0 100 100" xmlns="http://www.w3.org/2000/svg">
  <g fill="#F2C12C">
    <ellipse cx="50" cy="20" rx="5.5" ry="18"/>
    <ellipse cx="50" cy="20" rx="5.5" ry="18" transform="rotate(30 50 50)"/>
    <ellipse cx="50" cy="20" rx="5.5" ry="18" transform="rotate(60 50 50)"/>
    <ellipse cx="50" cy="20" rx="5.5" ry="18" transform="rotate(90 50 50)"/>
    <ellipse cx="50" cy="20" rx="5.5" ry="18" transform="rotate(120 50 50)"/>
    <ellipse cx="50" cy="20" rx="5.5" ry="18" transform="rotate(150 50 50)"/>
    <ellipse cx="50" cy="20" rx="5.5" ry="18" transform="rotate(180 50 50)"/>
    <ellipse cx="50" cy="20" rx="5.5" ry="18" transform="rotate(210 50 50)"/>
    <ellipse cx="50" cy="20" rx="5.5" ry="18" transform="rotate(240 50 50)"/>
    <ellipse cx="50" cy="20" rx="5.5" ry="18" transform="rotate(270 50 50)"/>
    <ellipse cx="50" cy="20" rx="5.5" ry="18" transform="rotate(300 50 50)"/>
    <ellipse cx="50" cy="20" rx="5.5" ry="18" transform="rotate(330 50 50)"/>
  </g>
  <g fill="#E89817">
    <ellipse cx="50" cy="20" rx="5.5" ry="18" transform="rotate(15 50 50)"/>
    <ellipse cx="50" cy="20" rx="5.5" ry="18" transform="rotate(45 50 50)"/>
    <ellipse cx="50" cy="20" rx="5.5" ry="18" transform="rotate(75 50 50)"/>
    <ellipse cx="50" cy="20" rx="5.5" ry="18" transform="rotate(105 50 50)"/>
    <ellipse cx="50" cy="20" rx="5.5" ry="18" transform="rotate(135 50 50)"/>
    <ellipse cx="50" cy="20" rx="5.5" ry="18" transform="rotate(165 50 50)"/>
    <ellipse cx="50" cy="20" rx="5.5" ry="18" transform="rotate(195 50 50)"/>
    <ellipse cx="50" cy="20" rx="5.5" ry="18" transform="rotate(225 50 50)"/>
    <ellipse cx="50" cy="20" rx="5.5" ry="18" transform="rotate(255 50 50)"/>
    <ellipse cx="50" cy="20" rx="5.5" ry="18" transform="rotate(285 50 50)"/>
    <ellipse cx="50" cy="20" rx="5.5" ry="18" transform="rotate(315 50 50)"/>
    <ellipse cx="50" cy="20" rx="5.5" ry="18" transform="rotate(345 50 50)"/>
  </g>
  <circle cx="50" cy="50" r="15" fill="#6B3E18"/>
  <circle cx="50" cy="50" r="8" fill="#3A2008"/>
</svg>
